<svg width="235" height="18" viewBox="0 0 235 18" fill="none" xmlns="http://www.w3.org/2000/svg">
<g clip-path="url(#clip0_34_71)">
<path fill-rule="evenodd" clip-rule="evenodd" d="M85.8461 14.1008L90.9806 16.8001L90 11.0828L94.1538 7.03382L88.4134 6.19968L85.8461 0.997925V14.1008Z" fill="#ECF0F2"/>
<path fill-rule="evenodd" clip-rule="evenodd" d="M85.8462 13.8462L80.963 16.4134L81.8956 10.9759L77.9451 7.12512L83.4046 6.3318L85.8462 1.38464V13.8462Z" fill="#FFB632"/>
<path fill-rule="evenodd" clip-rule="evenodd" d="M66.4615 13.8462L61.5784 16.4134L62.511 10.9759L58.5604 7.12512L64.02 6.3318L66.4615 1.38464L68.9031 6.3318L74.3626 7.12512L70.4121 10.9759L71.3447 16.4134L66.4615 13.8462Z" fill="#FFB632"/>
<path fill-rule="evenodd" clip-rule="evenodd" d="M47.0769 13.8462L42.1938 16.4134L43.1264 10.9759L39.1758 7.12512L44.6353 6.3318L47.0769 1.38464L49.5185 6.3318L54.978 7.12512L51.0275 10.9759L51.9601 16.4134L47.0769 13.8462Z" fill="#FFB632"/>
<path fill-rule="evenodd" clip-rule="evenodd" d="M27.6923 13.8462L22.8092 16.4134L23.7418 10.9759L19.7912 7.12512L25.2507 6.3318L27.6923 1.38464L30.1339 6.3318L35.5934 7.12512L31.6428 10.9759L32.5754 16.4134L27.6923 13.8462Z" fill="#FFB632"/>
<path fill-rule="evenodd" clip-rule="evenodd" d="M8.30769 13.8462L3.42455 16.4134L4.35715 10.9759L0.406607 7.12512L5.86612 6.3318L8.30769 1.38464L10.7493 6.3318L16.2088 7.12512L12.2582 10.9759L13.1908 16.4134L8.30769 13.8462Z" fill="#FFB632"/>
</g>
<defs>
<clipPath id="clip0_34_71">
<rect width="235" height="18" fill="white"/>
</clipPath>
</defs>
</svg>
